<svg xmlns="http://www.w3.org/2000/svg" xmlns:xlink="http://www.w3.org/1999/xlink" width="500" zoomAndPan="magnify" viewBox="0 0 375 374.999991" height="500" preserveAspectRatio="xMidYMid meet" version="1.0"><defs><g/><clipPath id="a52748ca4c"><path d="M 152.242188 120.355469 L 222.757812 120.355469 L 222.757812 190.867188 L 152.242188 190.867188 Z M 152.242188 120.355469 " clip-rule="nonzero"/></clipPath><clipPath id="9799a35035"><path d="M 171.742188 120.355469 L 203.257812 120.355469 C 214.027344 120.355469 222.757812 129.085938 222.757812 139.855469 L 222.757812 171.367188 C 222.757812 182.136719 214.027344 190.867188 203.257812 190.867188 L 171.742188 190.867188 C 160.972656 190.867188 152.242188 182.136719 152.242188 171.367188 L 152.242188 139.855469 C 152.242188 129.085938 160.972656 120.355469 171.742188 120.355469 " clip-rule="nonzero"/></clipPath><clipPath id="b77b836325"><path d="M 156.878906 134.46875 L 170 134.46875 L 170 176.46875 L 156.878906 176.46875 Z M 156.878906 134.46875 " clip-rule="nonzero"/></clipPath><clipPath id="715e23096a"><path d="M 205 134.46875 L 218.007812 134.46875 L 218.007812 176.46875 L 205 176.46875 Z M 205 134.46875 " clip-rule="nonzero"/></clipPath></defs><rect x="-37.5" width="450" fill="#ffffff" y="-37.499999" height="449.999989" fill-opacity="1"/><rect x="-37.5" width="450" fill="#004aad" y="-37.499999" height="449.999989" fill-opacity="1"/><g clip-path="url(#a52748ca4c)"><g clip-path="url(#9799a35035)"><path fill="#ffffff" d="M 152.242188 120.355469 L 222.757812 120.355469 L 222.757812 190.867188 L 152.242188 190.867188 Z M 152.242188 120.355469 " fill-opacity="1" fill-rule="nonzero"/></g></g><g clip-path="url(#b77b836325)"><path fill="#004aad" d="M 168.664062 139.136719 L 169.84375 139.136719 L 169.84375 134.46875 L 168.664062 134.46875 C 164.761719 134.46875 161.59375 137.601562 161.59375 141.46875 L 161.59375 149.636719 C 161.59375 150.371094 161.246094 151.0625 160.652344 151.503906 L 157.824219 153.601562 C 157.257812 154.023438 156.914062 154.671875 156.882812 155.371094 C 156.855469 156.070312 157.144531 156.75 157.671875 157.214844 L 160.804688 159.96875 C 161.308594 160.410156 161.59375 161.046875 161.59375 161.710938 L 161.59375 169.46875 C 161.59375 173.335938 164.761719 176.46875 168.664062 176.46875 L 169.84375 176.46875 L 169.84375 171.800781 L 168.664062 171.800781 C 167.363281 171.800781 166.308594 170.757812 166.308594 169.46875 L 166.308594 161.710938 C 166.308594 159.710938 165.445312 157.808594 163.933594 156.480469 L 162.960938 155.621094 L 163.480469 155.234375 C 165.261719 153.914062 166.308594 151.839844 166.308594 149.636719 L 166.308594 141.46875 C 166.308594 140.179688 167.363281 139.136719 168.664062 139.136719 Z M 168.664062 139.136719 " fill-opacity="1" fill-rule="evenodd"/></g><g clip-path="url(#715e23096a)"><path fill="#004aad" d="M 206.429688 139.136719 L 205.253906 139.136719 L 205.253906 134.46875 L 206.429688 134.46875 C 210.335938 134.46875 213.5 137.601562 213.5 141.46875 L 213.5 149.636719 C 213.5 150.371094 213.851562 151.0625 214.445312 151.503906 L 217.269531 153.601562 C 217.835938 154.023438 218.183594 154.671875 218.210938 155.371094 C 218.242188 156.070312 217.953125 156.75 217.421875 157.214844 L 214.292969 159.96875 C 213.789062 160.410156 213.5 161.046875 213.5 161.710938 L 213.5 169.46875 C 213.5 173.335938 210.335938 176.46875 206.429688 176.46875 L 205.253906 176.46875 L 205.253906 171.800781 L 206.429688 171.800781 C 207.734375 171.800781 208.789062 170.757812 208.789062 169.46875 L 208.789062 161.710938 C 208.789062 159.710938 209.652344 157.808594 211.160156 156.480469 L 212.136719 155.621094 L 211.617188 155.234375 C 209.835938 153.914062 208.789062 151.839844 208.789062 149.636719 L 208.789062 141.46875 C 208.789062 140.179688 207.734375 139.136719 206.429688 139.136719 Z M 206.429688 139.136719 " fill-opacity="1" fill-rule="evenodd"/></g><g fill="#ffffff" fill-opacity="1"><g transform="translate(79.453432, 226.156509)"><g><path d="M 8.539062 0.28125 C 12.457031 0.28125 15.785156 -2.03125 15.785156 -5.949219 C 15.785156 -13.71875 6.125 -11.792969 6.125 -15.433594 C 6.125 -16.625 7.035156 -17.183594 8.152344 -17.183594 C 9.34375 -17.183594 10.535156 -16.519531 11.582031 -15.363281 L 14.664062 -18.304688 C 13.125 -20.089844 10.777344 -21.277344 8.1875 -21.277344 C 4.863281 -21.277344 1.46875 -19.285156 1.46875 -15.082031 C 1.46875 -7.945312 11.164062 -9.660156 11.164062 -5.984375 C 11.164062 -4.828125 10.183594 -4.058594 8.574219 -4.058594 C 6.648438 -4.058594 5.144531 -5.144531 4.375 -6.789062 L 0.558594 -4.410156 C 1.925781 -1.785156 4.863281 0.28125 8.539062 0.28125 Z M 8.539062 0.28125 "/></g></g></g><g fill="#ffffff" fill-opacity="1"><g transform="translate(95.593128, 226.156509)"><g/></g></g><g fill="#ffffff" fill-opacity="1"><g transform="translate(103.543959, 226.156509)"><g><path d="M 15.011719 -21 L -0.175781 -21 L -0.175781 -16.902344 L 5.144531 -16.902344 L 5.144531 0 L 9.730469 0 L 9.730469 -16.902344 L 15.011719 -16.902344 Z M 15.011719 -21 "/></g></g></g><g fill="#ffffff" fill-opacity="1"><g transform="translate(117.933899, 226.156509)"><g><path d="M 2.238281 0 L 6.859375 0 L 6.859375 -21 L 2.238281 -21 Z M 2.238281 0 "/></g></g></g><g fill="#ffffff" fill-opacity="1"><g transform="translate(126.549643, 226.156509)"><g><path d="M 14.875 -16.9375 L 14.875 -21 L 2.238281 -21 L 2.238281 0 L 14.875 0 L 14.875 -4.058594 L 6.859375 -4.058594 L 6.859375 -8.46875 L 13.71875 -8.46875 L 13.71875 -12.527344 L 6.859375 -12.527344 L 6.859375 -16.9375 Z M 14.875 -16.9375 "/></g></g></g><g fill="#ffffff" fill-opacity="1"><g transform="translate(142.40938, 226.156509)"><g><path d="M 13.019531 -8.644531 C 15.503906 -9.378906 17.253906 -11.6875 17.253906 -14.558594 C 17.253906 -18.128906 14.59375 -21 10.988281 -21 L 2.066406 -21 L 2.066406 0 L 6.683594 0 L 6.683594 -8.121094 L 8.539062 -8.121094 L 13.71875 0 L 18.898438 0 Z M 10.289062 -11.933594 L 6.683594 -11.933594 L 6.683594 -16.902344 L 10.289062 -16.902344 C 11.757812 -16.902344 12.84375 -15.855469 12.84375 -14.417969 C 12.84375 -12.949219 11.757812 -11.933594 10.289062 -11.933594 Z M 10.289062 -11.933594 "/></g></g></g><g fill="#ffffff" fill-opacity="1"><g transform="translate(160.683774, 226.156509)"><g/></g></g><g fill="#ffffff" fill-opacity="1"><g transform="translate(168.634602, 226.156509)"><g><path d="M 8.539062 0.28125 C 12.457031 0.28125 15.785156 -2.03125 15.785156 -5.949219 C 15.785156 -13.71875 6.125 -11.792969 6.125 -15.433594 C 6.125 -16.625 7.035156 -17.183594 8.152344 -17.183594 C 9.34375 -17.183594 10.535156 -16.519531 11.582031 -15.363281 L 14.664062 -18.304688 C 13.125 -20.089844 10.777344 -21.277344 8.1875 -21.277344 C 4.863281 -21.277344 1.46875 -19.285156 1.46875 -15.082031 C 1.46875 -7.945312 11.164062 -9.660156 11.164062 -5.984375 C 11.164062 -4.828125 10.183594 -4.058594 8.574219 -4.058594 C 6.648438 -4.058594 5.144531 -5.144531 4.375 -6.789062 L 0.558594 -4.410156 C 1.925781 -1.785156 4.863281 0.28125 8.539062 0.28125 Z M 8.539062 0.28125 "/></g></g></g><g fill="#ffffff" fill-opacity="1"><g transform="translate(184.774295, 226.156509)"><g><path d="M 15.011719 -21 L -0.175781 -21 L -0.175781 -16.902344 L 5.144531 -16.902344 L 5.144531 0 L 9.730469 0 L 9.730469 -16.902344 L 15.011719 -16.902344 Z M 15.011719 -21 "/></g></g></g><g fill="#ffffff" fill-opacity="1"><g transform="translate(199.164232, 226.156509)"><g><path d="M 10.675781 0.28125 C 15.644531 0.28125 19.421875 -2.765625 19.421875 -6.71875 L 19.421875 -21 L 14.804688 -21 L 14.804688 -7.59375 C 14.804688 -5.460938 13.019531 -3.816406 10.675781 -3.816406 C 8.363281 -3.816406 6.578125 -5.460938 6.578125 -7.59375 L 6.578125 -21 L 1.960938 -21 L 1.960938 -6.71875 C 1.960938 -2.765625 5.773438 0.28125 10.675781 0.28125 Z M 10.675781 0.28125 "/></g></g></g><g fill="#ffffff" fill-opacity="1"><g transform="translate(220.098255, 226.156509)"><g><path d="M 2.066406 0 L 8.996094 0 C 14.769531 0 19.492188 -4.691406 19.492188 -10.5 C 19.492188 -16.308594 14.769531 -21 8.996094 -21 L 2.066406 -21 Z M 6.683594 -4.09375 L 6.683594 -16.902344 L 8.960938 -16.902344 C 12.285156 -16.902344 14.875 -14.140625 14.875 -10.5 C 14.875 -6.859375 12.285156 -4.09375 8.960938 -4.09375 Z M 6.683594 -4.09375 "/></g></g></g><g fill="#ffffff" fill-opacity="1"><g transform="translate(240.437369, 226.156509)"><g><path d="M 2.238281 0 L 6.859375 0 L 6.859375 -21 L 2.238281 -21 Z M 2.238281 0 "/></g></g></g><g fill="#ffffff" fill-opacity="1"><g transform="translate(249.05311, 226.156509)"><g><path d="M 12.074219 0.28125 C 18.058594 0.28125 22.851562 -4.550781 22.851562 -10.5 C 22.851562 -16.449219 18.058594 -21.277344 12.074219 -21.277344 C 6.125 -21.277344 1.292969 -16.449219 1.292969 -10.5 C 1.292969 -4.550781 6.125 0.28125 12.074219 0.28125 Z M 12.074219 -4.234375 C 8.539062 -4.234375 5.84375 -6.964844 5.84375 -10.5 C 5.84375 -14.035156 8.539062 -16.761719 12.074219 -16.761719 C 15.644531 -16.761719 18.339844 -14.035156 18.339844 -10.5 C 18.339844 -6.964844 15.644531 -4.234375 12.074219 -4.234375 Z M 12.074219 -4.234375 "/></g></g></g><g fill="#ffffff" fill-opacity="1"><g transform="translate(272.786747, 226.156509)"><g><path d="M 8.539062 0.28125 C 12.457031 0.28125 15.785156 -2.03125 15.785156 -5.949219 C 15.785156 -13.71875 6.125 -11.792969 6.125 -15.433594 C 6.125 -16.625 7.035156 -17.183594 8.152344 -17.183594 C 9.34375 -17.183594 10.535156 -16.519531 11.582031 -15.363281 L 14.664062 -18.304688 C 13.125 -20.089844 10.777344 -21.277344 8.1875 -21.277344 C 4.863281 -21.277344 1.46875 -19.285156 1.46875 -15.082031 C 1.46875 -7.945312 11.164062 -9.660156 11.164062 -5.984375 C 11.164062 -4.828125 10.183594 -4.058594 8.574219 -4.058594 C 6.648438 -4.058594 5.144531 -5.144531 4.375 -6.789062 L 0.558594 -4.410156 C 1.925781 -1.785156 4.863281 0.28125 8.539062 0.28125 Z M 8.539062 0.28125 "/></g></g></g><g fill="#004aad" fill-opacity="1"><g transform="translate(174.463324, 173.900029)"><g><path d="M 13.417969 0.441406 C 19.578125 0.441406 24.800781 -3.191406 24.800781 -9.347656 C 24.800781 -21.558594 9.625 -18.53125 9.625 -24.253906 C 9.625 -26.121094 11.054688 -27 12.8125 -27 C 14.683594 -27 16.554688 -25.957031 18.203125 -24.140625 L 23.042969 -28.761719 C 20.621094 -31.566406 16.9375 -33.4375 12.867188 -33.4375 C 7.644531 -33.4375 2.308594 -30.300781 2.308594 -23.703125 C 2.308594 -12.484375 17.542969 -15.179688 17.542969 -9.402344 C 17.542969 -7.589844 16.003906 -6.378906 13.472656 -6.378906 C 10.449219 -6.378906 8.085938 -8.085938 6.875 -10.667969 L 0.878906 -6.929688 C 3.023438 -2.804688 7.644531 0.441406 13.417969 0.441406 Z M 13.417969 0.441406 "/></g></g></g><g fill="#ffffff" fill-opacity="1"><g transform="translate(141.384817, 257.406487)"><g><path d="M 3.359375 0.121094 C 4.890625 0.121094 6.136719 -0.796875 6.136719 -2.371094 C 6.136719 -5.429688 1.753906 -4.679688 1.753906 -6.824219 C 1.753906 -7.726562 2.488281 -8.160156 3.328125 -8.160156 C 4.019531 -8.160156 4.589844 -7.875 4.949219 -7.363281 L 5.699219 -7.996094 C 5.203125 -8.625 4.335938 -9.121094 3.300781 -9.121094 C 1.921875 -9.121094 0.796875 -8.21875 0.796875 -6.75 C 0.796875 -3.855469 5.175781 -4.574219 5.175781 -2.339844 C 5.175781 -1.378906 4.378906 -0.839844 3.375 -0.839844 C 2.355469 -0.839844 1.621094 -1.394531 1.304688 -2.21875 L 0.433594 -1.710938 C 0.898438 -0.601562 2.023438 0.121094 3.359375 0.121094 Z M 3.359375 0.121094 "/></g></g></g><g fill="#ffffff" fill-opacity="1"><g transform="translate(151.974887, 257.406487)"><g><path d="M 5.355469 0.121094 C 7.921875 0.121094 9.976562 -1.949219 9.976562 -4.5 C 9.976562 -7.050781 7.921875 -9.121094 5.355469 -9.121094 C 2.804688 -9.121094 0.734375 -7.050781 0.734375 -4.5 C 0.734375 -1.949219 2.804688 0.121094 5.355469 0.121094 Z M 5.355469 -0.839844 C 3.328125 -0.839844 1.695312 -2.460938 1.695312 -4.5 C 1.695312 -6.539062 3.328125 -8.160156 5.355469 -8.160156 C 7.394531 -8.160156 9.015625 -6.539062 9.015625 -4.5 C 9.015625 -2.460938 7.394531 -0.839844 5.355469 -0.839844 Z M 5.355469 -0.839844 "/></g></g></g><g fill="#ffffff" fill-opacity="1"><g transform="translate(166.719952, 257.406487)"><g><path d="M 6.089844 -8.070312 L 6.089844 -9 L 1.171875 -9 L 1.171875 0 L 2.128906 0 L 2.128906 -4.035156 L 5.578125 -4.035156 L 5.578125 -4.964844 L 2.128906 -4.964844 L 2.128906 -8.070312 Z M 6.089844 -8.070312 "/></g></g></g><g fill="#ffffff" fill-opacity="1"><g transform="translate(177.100023, 257.406487)"><g><path d="M 6.074219 -9 L 0.136719 -9 L 0.136719 -8.039062 L 2.625 -8.039062 L 2.625 0 L 3.585938 0 L 3.585938 -8.039062 L 6.074219 -8.039062 Z M 6.074219 -9 "/></g></g></g><g fill="#ffffff" fill-opacity="1"><g transform="translate(187.330096, 257.406487)"><g><path d="M 11.234375 -9 L 8.925781 -1.605469 L 6.734375 -9 L 5.386719 -9 L 3.226562 -1.621094 L 0.929688 -9 L -0.0898438 -9 L 2.730469 0 L 3.75 0 L 6.058594 -7.980469 L 8.414062 0 L 9.421875 0 L 12.226562 -9 Z M 11.234375 -9 "/></g></g></g><g fill="#ffffff" fill-opacity="1"><g transform="translate(203.485153, 257.406487)"><g><path d="M 6.523438 0 L 7.574219 0 L 4.320312 -9 L 3.253906 -9 L 0 0 L 1.050781 0 L 1.785156 -2.101562 L 5.789062 -2.101562 Z M 2.101562 -3.015625 L 3.796875 -7.859375 L 5.476562 -3.015625 Z M 2.101562 -3.015625 "/></g></g></g><g fill="#ffffff" fill-opacity="1"><g transform="translate(215.08022, 257.406487)"><g><path d="M 4.738281 -4.109375 C 5.925781 -4.273438 6.824219 -5.265625 6.824219 -6.480469 C 6.824219 -7.890625 5.699219 -9 4.320312 -9 L 1.09375 -9 L 1.09375 0 L 2.054688 0 L 2.054688 -4.066406 L 3.75 -4.066406 L 6.300781 0 L 7.394531 0 Z M 2.054688 -4.980469 L 2.054688 -8.039062 L 4.261719 -8.039062 C 5.160156 -8.039062 5.863281 -7.410156 5.863281 -6.511719 C 5.863281 -5.59375 5.175781 -4.980469 4.261719 -4.980469 Z M 2.054688 -4.980469 "/></g></g></g><g fill="#ffffff" fill-opacity="1"><g transform="translate(226.630289, 257.406487)"><g><path d="M 6.089844 -8.070312 L 6.089844 -9 L 1.171875 -9 L 1.171875 0 L 6.089844 0 L 6.089844 -0.929688 L 2.128906 -0.929688 L 2.128906 -4.035156 L 5.578125 -4.035156 L 5.578125 -4.964844 L 2.128906 -4.964844 L 2.128906 -8.070312 Z M 6.089844 -8.070312 "/></g></g></g><g fill="#ffffff" fill-opacity="1"><g transform="translate(123.595756, 273.906486)"><g><path d="M 1.09375 0 L 3.554688 0 C 6.03125 0 8.054688 -2.011719 8.054688 -4.5 C 8.054688 -6.988281 6.03125 -9 3.554688 -9 L 1.09375 -9 Z M 2.039062 -0.960938 L 2.039062 -8.039062 L 3.539062 -8.039062 C 5.535156 -8.039062 7.09375 -6.523438 7.09375 -4.5 C 7.09375 -2.476562 5.535156 -0.960938 3.539062 -0.960938 Z M 2.039062 -0.960938 "/></g></g></g><g fill="#ffffff" fill-opacity="1"><g transform="translate(136.40582, 273.906486)"><g><path d="M 6.089844 -8.070312 L 6.089844 -9 L 1.171875 -9 L 1.171875 0 L 6.089844 0 L 6.089844 -0.929688 L 2.128906 -0.929688 L 2.128906 -4.035156 L 5.578125 -4.035156 L 5.578125 -4.964844 L 2.128906 -4.964844 L 2.128906 -8.070312 Z M 6.089844 -8.070312 "/></g></g></g><g fill="#ffffff" fill-opacity="1"><g transform="translate(147.415888, 273.906486)"><g><path d="M 6.523438 -9 L 3.796875 -1.230469 L 1.066406 -9 L 0 -9 L 3.253906 0 L 4.320312 0 L 7.574219 -9 Z M 6.523438 -9 "/></g></g></g><g fill="#ffffff" fill-opacity="1"><g transform="translate(159.010955, 273.906486)"><g><path d="M 6.089844 -8.070312 L 6.089844 -9 L 1.171875 -9 L 1.171875 0 L 6.089844 0 L 6.089844 -0.929688 L 2.128906 -0.929688 L 2.128906 -4.035156 L 5.578125 -4.035156 L 5.578125 -4.964844 L 2.128906 -4.964844 L 2.128906 -8.070312 Z M 6.089844 -8.070312 "/></g></g></g><g fill="#ffffff" fill-opacity="1"><g transform="translate(170.021023, 273.906486)"><g><path d="M 2.054688 -0.960938 L 2.054688 -9 L 1.09375 -9 L 1.09375 0 L 5.398438 0 L 5.398438 -0.960938 Z M 2.054688 -0.960938 "/></g></g></g><g fill="#ffffff" fill-opacity="1"><g transform="translate(179.57609, 273.906486)"><g><path d="M 5.355469 0.121094 C 7.921875 0.121094 9.976562 -1.949219 9.976562 -4.5 C 9.976562 -7.050781 7.921875 -9.121094 5.355469 -9.121094 C 2.804688 -9.121094 0.734375 -7.050781 0.734375 -4.5 C 0.734375 -1.949219 2.804688 0.121094 5.355469 0.121094 Z M 5.355469 -0.839844 C 3.328125 -0.839844 1.695312 -2.460938 1.695312 -4.5 C 1.695312 -6.539062 3.328125 -8.160156 5.355469 -8.160156 C 7.394531 -8.160156 9.015625 -6.539062 9.015625 -4.5 C 9.015625 -2.460938 7.394531 -0.839844 5.355469 -0.839844 Z M 5.355469 -0.839844 "/></g></g></g><g fill="#ffffff" fill-opacity="1"><g transform="translate(194.321155, 273.906486)"><g><path d="M 4.320312 -9 L 1.09375 -9 L 1.09375 0 L 2.054688 0 L 2.054688 -4.003906 L 4.320312 -4.003906 C 5.714844 -4.003906 6.824219 -5.101562 6.824219 -6.496094 C 6.824219 -7.875 5.714844 -9 4.320312 -9 Z M 4.230469 -4.921875 L 2.054688 -4.921875 L 2.054688 -8.070312 L 4.230469 -8.070312 C 5.128906 -8.070312 5.863281 -7.441406 5.863281 -6.480469 C 5.863281 -5.488281 5.128906 -4.921875 4.230469 -4.921875 Z M 4.230469 -4.921875 "/></g></g></g><g fill="#ffffff" fill-opacity="1"><g transform="translate(205.421219, 273.906486)"><g><path d="M 9.03125 -9 L 5.566406 -1.15625 L 2.113281 -9 L 1.09375 -9 L 1.09375 0 L 2.054688 0 L 2.054688 -7.109375 L 5.160156 0 L 5.953125 0 L 9.089844 -7.078125 L 9.089844 0 L 10.035156 0 L 10.035156 -9 Z M 9.03125 -9 "/></g></g></g><g fill="#ffffff" fill-opacity="1"><g transform="translate(220.571279, 273.906486)"><g><path d="M 6.089844 -8.070312 L 6.089844 -9 L 1.171875 -9 L 1.171875 0 L 6.089844 0 L 6.089844 -0.929688 L 2.128906 -0.929688 L 2.128906 -4.035156 L 5.578125 -4.035156 L 5.578125 -4.964844 L 2.128906 -4.964844 L 2.128906 -8.070312 Z M 6.089844 -8.070312 "/></g></g></g><g fill="#ffffff" fill-opacity="1"><g transform="translate(231.581353, 273.906486)"><g><path d="M 7.558594 -9 L 7.558594 -1.605469 L 1.996094 -9 L 1.09375 -9 L 1.09375 0 L 2.054688 0 L 2.054688 -7.394531 L 7.605469 0 L 8.503906 0 L 8.503906 -9 Z M 7.558594 -9 "/></g></g></g><g fill="#ffffff" fill-opacity="1"><g transform="translate(245.201423, 273.906486)"><g><path d="M 6.074219 -9 L 0.136719 -9 L 0.136719 -8.039062 L 2.625 -8.039062 L 2.625 0 L 3.585938 0 L 3.585938 -8.039062 L 6.074219 -8.039062 Z M 6.074219 -9 "/></g></g></g></svg>