<svg xmlns="http://www.w3.org/2000/svg" xmlns:xlink="http://www.w3.org/1999/xlink" width="500" zoomAndPan="magnify" viewBox="0 0 375 374.999991" height="500" preserveAspectRatio="xMidYMid meet" version="1.0"><defs><g/><linearGradient x1="0" gradientTransform="matrix(0.75, 0, 0, 0.75, 0.0000045, 0)" y1="0" x2="499.999979" gradientUnits="userSpaceOnUse" y2="0" id="19c7ca2781"><stop stop-opacity="1" stop-color="rgb(0%, 0%, 0%)" offset="0"/><stop stop-opacity="1" stop-color="rgb(0.175476%, 0.175476%, 0.175476%)" offset="0.0078125"/><stop stop-opacity="1" stop-color="rgb(0.526428%, 0.526428%, 0.526428%)" offset="0.015625"/><stop stop-opacity="1" stop-color="rgb(0.878906%, 0.878906%, 0.878906%)" offset="0.0234375"/><stop stop-opacity="1" stop-color="rgb(1.231384%, 1.231384%, 1.231384%)" offset="0.03125"/><stop stop-opacity="1" stop-color="rgb(1.583862%, 1.583862%, 1.583862%)" offset="0.0390625"/><stop stop-opacity="1" stop-color="rgb(1.93634%, 1.93634%, 1.93634%)" offset="0.046875"/><stop stop-opacity="1" stop-color="rgb(2.288818%, 2.288818%, 2.288818%)" offset="0.0546875"/><stop stop-opacity="1" stop-color="rgb(2.641296%, 2.641296%, 2.641296%)" offset="0.0625"/><stop stop-opacity="1" stop-color="rgb(2.993774%, 2.993774%, 2.993774%)" offset="0.0703125"/><stop stop-opacity="1" stop-color="rgb(3.346252%, 3.346252%, 3.346252%)" offset="0.078125"/><stop stop-opacity="1" stop-color="rgb(3.69873%, 3.69873%, 3.69873%)" offset="0.0859375"/><stop stop-opacity="1" stop-color="rgb(4.051208%, 4.051208%, 4.051208%)" offset="0.09375"/><stop stop-opacity="1" stop-color="rgb(4.402161%, 4.402161%, 4.402161%)" offset="0.101562"/><stop stop-opacity="1" stop-color="rgb(4.754639%, 4.754639%, 4.754639%)" offset="0.109375"/><stop stop-opacity="1" stop-color="rgb(5.107117%, 5.107117%, 5.107117%)" offset="0.117188"/><stop stop-opacity="1" stop-color="rgb(5.459595%, 5.459595%, 5.459595%)" offset="0.125"/><stop stop-opacity="1" stop-color="rgb(5.812073%, 5.812073%, 5.812073%)" offset="0.132812"/><stop stop-opacity="1" stop-color="rgb(6.164551%, 6.164551%, 6.164551%)" offset="0.140625"/><stop stop-opacity="1" stop-color="rgb(6.517029%, 6.517029%, 6.517029%)" offset="0.148437"/><stop stop-opacity="1" stop-color="rgb(6.869507%, 6.869507%, 6.869507%)" offset="0.15625"/><stop stop-opacity="1" stop-color="rgb(7.221985%, 7.221985%, 7.221985%)" offset="0.164062"/><stop stop-opacity="1" stop-color="rgb(7.574463%, 7.574463%, 7.574463%)" offset="0.171875"/><stop stop-opacity="1" stop-color="rgb(7.926941%, 7.926941%, 7.926941%)" offset="0.179687"/><stop stop-opacity="1" stop-color="rgb(8.277893%, 8.277893%, 8.277893%)" offset="0.1875"/><stop stop-opacity="1" stop-color="rgb(8.630371%, 8.630371%, 8.630371%)" offset="0.195312"/><stop stop-opacity="1" stop-color="rgb(8.982849%, 8.982849%, 8.982849%)" offset="0.203125"/><stop stop-opacity="1" stop-color="rgb(9.335327%, 9.335327%, 9.335327%)" offset="0.210938"/><stop stop-opacity="1" stop-color="rgb(9.687805%, 9.687805%, 9.687805%)" offset="0.21875"/><stop stop-opacity="1" stop-color="rgb(10.040283%, 10.040283%, 10.040283%)" offset="0.226562"/><stop stop-opacity="1" stop-color="rgb(10.392761%, 10.392761%, 10.392761%)" offset="0.234375"/><stop stop-opacity="1" stop-color="rgb(10.745239%, 10.745239%, 10.745239%)" offset="0.242188"/><stop stop-opacity="1" stop-color="rgb(11.097717%, 11.097717%, 11.097717%)" offset="0.25"/><stop stop-opacity="1" stop-color="rgb(11.450195%, 11.450195%, 11.450195%)" offset="0.257812"/><stop stop-opacity="1" stop-color="rgb(11.802673%, 11.802673%, 11.802673%)" offset="0.265625"/><stop stop-opacity="1" stop-color="rgb(12.155151%, 12.155151%, 12.155151%)" offset="0.273437"/><stop stop-opacity="1" stop-color="rgb(12.506104%, 12.506104%, 12.506104%)" offset="0.28125"/><stop stop-opacity="1" stop-color="rgb(12.858582%, 12.858582%, 12.858582%)" offset="0.289062"/><stop stop-opacity="1" stop-color="rgb(13.21106%, 13.21106%, 13.21106%)" offset="0.296875"/><stop stop-opacity="1" stop-color="rgb(13.563538%, 13.563538%, 13.563538%)" offset="0.304687"/><stop stop-opacity="1" stop-color="rgb(13.916016%, 13.916016%, 13.916016%)" offset="0.3125"/><stop stop-opacity="1" stop-color="rgb(14.268494%, 14.268494%, 14.268494%)" offset="0.320312"/><stop stop-opacity="1" stop-color="rgb(14.620972%, 14.620972%, 14.620972%)" offset="0.328125"/><stop stop-opacity="1" stop-color="rgb(14.97345%, 14.97345%, 14.97345%)" offset="0.335937"/><stop stop-opacity="1" stop-color="rgb(15.325928%, 15.325928%, 15.325928%)" offset="0.34375"/><stop stop-opacity="1" stop-color="rgb(15.678406%, 15.678406%, 15.678406%)" offset="0.351562"/><stop stop-opacity="1" stop-color="rgb(16.030884%, 16.030884%, 16.030884%)" offset="0.359375"/><stop stop-opacity="1" stop-color="rgb(16.381836%, 16.381836%, 16.381836%)" offset="0.367187"/><stop stop-opacity="1" stop-color="rgb(16.734314%, 16.734314%, 16.734314%)" offset="0.375"/><stop stop-opacity="1" stop-color="rgb(17.086792%, 17.086792%, 17.086792%)" offset="0.382812"/><stop stop-opacity="1" stop-color="rgb(17.43927%, 17.43927%, 17.43927%)" offset="0.390625"/><stop stop-opacity="1" stop-color="rgb(17.791748%, 17.791748%, 17.791748%)" offset="0.398438"/><stop stop-opacity="1" stop-color="rgb(18.144226%, 18.144226%, 18.144226%)" offset="0.40625"/><stop stop-opacity="1" stop-color="rgb(18.496704%, 18.496704%, 18.496704%)" offset="0.414062"/><stop stop-opacity="1" stop-color="rgb(18.849182%, 18.849182%, 18.849182%)" offset="0.421875"/><stop stop-opacity="1" stop-color="rgb(19.20166%, 19.20166%, 19.20166%)" offset="0.429688"/><stop stop-opacity="1" stop-color="rgb(19.554138%, 19.554138%, 19.554138%)" offset="0.4375"/><stop stop-opacity="1" stop-color="rgb(19.906616%, 19.906616%, 19.906616%)" offset="0.445312"/><stop stop-opacity="1" stop-color="rgb(20.257568%, 20.257568%, 20.257568%)" offset="0.453125"/><stop stop-opacity="1" stop-color="rgb(20.610046%, 20.610046%, 20.610046%)" offset="0.460938"/><stop stop-opacity="1" stop-color="rgb(20.962524%, 20.962524%, 20.962524%)" offset="0.46875"/><stop stop-opacity="1" stop-color="rgb(21.315002%, 21.315002%, 21.315002%)" offset="0.476562"/><stop stop-opacity="1" stop-color="rgb(21.66748%, 21.66748%, 21.66748%)" offset="0.484375"/><stop stop-opacity="1" stop-color="rgb(22.019958%, 22.019958%, 22.019958%)" offset="0.492188"/><stop stop-opacity="1" stop-color="rgb(22.372437%, 22.372437%, 22.372437%)" offset="0.5"/><stop stop-opacity="1" stop-color="rgb(22.724915%, 22.724915%, 22.724915%)" offset="0.507812"/><stop stop-opacity="1" stop-color="rgb(23.077393%, 23.077393%, 23.077393%)" offset="0.515625"/><stop stop-opacity="1" stop-color="rgb(23.429871%, 23.429871%, 23.429871%)" offset="0.523437"/><stop stop-opacity="1" stop-color="rgb(23.782349%, 23.782349%, 23.782349%)" offset="0.53125"/><stop stop-opacity="1" stop-color="rgb(24.134827%, 24.134827%, 24.134827%)" offset="0.539062"/><stop stop-opacity="1" stop-color="rgb(24.485779%, 24.485779%, 24.485779%)" offset="0.546875"/><stop stop-opacity="1" stop-color="rgb(24.838257%, 24.838257%, 24.838257%)" offset="0.554687"/><stop stop-opacity="1" stop-color="rgb(25.190735%, 25.190735%, 25.190735%)" offset="0.5625"/><stop stop-opacity="1" stop-color="rgb(25.543213%, 25.543213%, 25.543213%)" offset="0.570312"/><stop stop-opacity="1" stop-color="rgb(25.895691%, 25.895691%, 25.895691%)" offset="0.578125"/><stop stop-opacity="1" stop-color="rgb(26.248169%, 26.248169%, 26.248169%)" offset="0.585937"/><stop stop-opacity="1" stop-color="rgb(26.600647%, 26.600647%, 26.600647%)" offset="0.59375"/><stop stop-opacity="1" stop-color="rgb(26.953125%, 26.953125%, 26.953125%)" offset="0.601562"/><stop stop-opacity="1" stop-color="rgb(27.305603%, 27.305603%, 27.305603%)" offset="0.609375"/><stop stop-opacity="1" stop-color="rgb(27.658081%, 27.658081%, 27.658081%)" offset="0.617187"/><stop stop-opacity="1" stop-color="rgb(28.010559%, 28.010559%, 28.010559%)" offset="0.625"/><stop stop-opacity="1" stop-color="rgb(28.361511%, 28.361511%, 28.361511%)" offset="0.632812"/><stop stop-opacity="1" stop-color="rgb(28.713989%, 28.713989%, 28.713989%)" offset="0.640625"/><stop stop-opacity="1" stop-color="rgb(29.066467%, 29.066467%, 29.066467%)" offset="0.648437"/><stop stop-opacity="1" stop-color="rgb(29.418945%, 29.418945%, 29.418945%)" offset="0.65625"/><stop stop-opacity="1" stop-color="rgb(29.771423%, 29.771423%, 29.771423%)" offset="0.664062"/><stop stop-opacity="1" stop-color="rgb(30.123901%, 30.123901%, 30.123901%)" offset="0.671875"/><stop stop-opacity="1" stop-color="rgb(30.476379%, 30.476379%, 30.476379%)" offset="0.679687"/><stop stop-opacity="1" stop-color="rgb(30.828857%, 30.828857%, 30.828857%)" offset="0.6875"/><stop stop-opacity="1" stop-color="rgb(31.181335%, 31.181335%, 31.181335%)" offset="0.695312"/><stop stop-opacity="1" stop-color="rgb(31.533813%, 31.533813%, 31.533813%)" offset="0.703125"/><stop stop-opacity="1" stop-color="rgb(31.886292%, 31.886292%, 31.886292%)" offset="0.710937"/><stop stop-opacity="1" stop-color="rgb(32.237244%, 32.237244%, 32.237244%)" offset="0.71875"/><stop stop-opacity="1" stop-color="rgb(32.589722%, 32.589722%, 32.589722%)" offset="0.726562"/><stop stop-opacity="1" stop-color="rgb(32.9422%, 32.9422%, 32.9422%)" offset="0.734375"/><stop stop-opacity="1" stop-color="rgb(33.294678%, 33.294678%, 33.294678%)" offset="0.742187"/><stop stop-opacity="1" stop-color="rgb(33.647156%, 33.647156%, 33.647156%)" offset="0.75"/><stop stop-opacity="1" stop-color="rgb(33.999634%, 33.999634%, 33.999634%)" offset="0.757812"/><stop stop-opacity="1" stop-color="rgb(34.352112%, 34.352112%, 34.352112%)" offset="0.765625"/><stop stop-opacity="1" stop-color="rgb(34.70459%, 34.70459%, 34.70459%)" offset="0.773438"/><stop stop-opacity="1" stop-color="rgb(35.057068%, 35.057068%, 35.057068%)" offset="0.78125"/><stop stop-opacity="1" stop-color="rgb(35.409546%, 35.409546%, 35.409546%)" offset="0.789062"/><stop stop-opacity="1" stop-color="rgb(35.762024%, 35.762024%, 35.762024%)" offset="0.796875"/><stop stop-opacity="1" stop-color="rgb(36.114502%, 36.114502%, 36.114502%)" offset="0.804688"/><stop stop-opacity="1" stop-color="rgb(36.465454%, 36.465454%, 36.465454%)" offset="0.8125"/><stop stop-opacity="1" stop-color="rgb(36.817932%, 36.817932%, 36.817932%)" offset="0.820312"/><stop stop-opacity="1" stop-color="rgb(37.17041%, 37.17041%, 37.17041%)" offset="0.828125"/><stop stop-opacity="1" stop-color="rgb(37.522888%, 37.522888%, 37.522888%)" offset="0.835938"/><stop stop-opacity="1" stop-color="rgb(37.875366%, 37.875366%, 37.875366%)" offset="0.84375"/><stop stop-opacity="1" stop-color="rgb(38.227844%, 38.227844%, 38.227844%)" offset="0.851562"/><stop stop-opacity="1" stop-color="rgb(38.580322%, 38.580322%, 38.580322%)" offset="0.859375"/><stop stop-opacity="1" stop-color="rgb(38.9328%, 38.9328%, 38.9328%)" offset="0.867188"/><stop stop-opacity="1" stop-color="rgb(39.285278%, 39.285278%, 39.285278%)" offset="0.875"/><stop stop-opacity="1" stop-color="rgb(39.637756%, 39.637756%, 39.637756%)" offset="0.882812"/><stop stop-opacity="1" stop-color="rgb(39.990234%, 39.990234%, 39.990234%)" offset="0.890625"/><stop stop-opacity="1" stop-color="rgb(40.341187%, 40.341187%, 40.341187%)" offset="0.898438"/><stop stop-opacity="1" stop-color="rgb(40.693665%, 40.693665%, 40.693665%)" offset="0.90625"/><stop stop-opacity="1" stop-color="rgb(41.046143%, 41.046143%, 41.046143%)" offset="0.914062"/><stop stop-opacity="1" stop-color="rgb(41.398621%, 41.398621%, 41.398621%)" offset="0.921875"/><stop stop-opacity="1" stop-color="rgb(41.751099%, 41.751099%, 41.751099%)" offset="0.929688"/><stop stop-opacity="1" stop-color="rgb(42.103577%, 42.103577%, 42.103577%)" offset="0.9375"/><stop stop-opacity="1" stop-color="rgb(42.456055%, 42.456055%, 42.456055%)" offset="0.945312"/><stop stop-opacity="1" stop-color="rgb(42.808533%, 42.808533%, 42.808533%)" offset="0.953125"/><stop stop-opacity="1" stop-color="rgb(43.161011%, 43.161011%, 43.161011%)" offset="0.960938"/><stop stop-opacity="1" stop-color="rgb(43.513489%, 43.513489%, 43.513489%)" offset="0.96875"/><stop stop-opacity="1" stop-color="rgb(43.865967%, 43.865967%, 43.865967%)" offset="0.976562"/><stop stop-opacity="1" stop-color="rgb(44.216919%, 44.216919%, 44.216919%)" offset="0.984375"/><stop stop-opacity="1" stop-color="rgb(44.569397%, 44.569397%, 44.569397%)" offset="0.992188"/><stop stop-opacity="1" stop-color="rgb(44.921875%, 44.921875%, 44.921875%)" offset="1"/></linearGradient><clipPath id="fa01b346e2"><path d="M 152.242188 120.355469 L 222.757812 120.355469 L 222.757812 190.867188 L 152.242188 190.867188 Z M 152.242188 120.355469 " clip-rule="nonzero"/></clipPath><clipPath id="0a5b82374f"><path d="M 171.742188 120.355469 L 203.257812 120.355469 C 214.027344 120.355469 222.757812 129.085938 222.757812 139.855469 L 222.757812 171.367188 C 222.757812 182.136719 214.027344 190.867188 203.257812 190.867188 L 171.742188 190.867188 C 160.972656 190.867188 152.242188 182.136719 152.242188 171.367188 L 152.242188 139.855469 C 152.242188 129.085938 160.972656 120.355469 171.742188 120.355469 " clip-rule="nonzero"/></clipPath><clipPath id="251a067770"><path d="M 156.878906 134.46875 L 170 134.46875 L 170 176.46875 L 156.878906 176.46875 Z M 156.878906 134.46875 " clip-rule="nonzero"/></clipPath><clipPath id="5b849db35e"><path d="M 205 134.46875 L 218.007812 134.46875 L 218.007812 176.46875 L 205 176.46875 Z M 205 134.46875 " clip-rule="nonzero"/></clipPath></defs><rect x="-37.5" width="450" fill="#ffffff" y="-37.499999" height="449.999989" fill-opacity="1"/><rect x="-37.5" fill="url(#19c7ca2781)" width="450" y="-37.499999" height="449.999989"/><g clip-path="url(#fa01b346e2)"><g clip-path="url(#0a5b82374f)"><path fill="#ffffff" d="M 152.242188 120.355469 L 222.757812 120.355469 L 222.757812 190.867188 L 152.242188 190.867188 Z M 152.242188 120.355469 " fill-opacity="1" fill-rule="nonzero"/></g></g><g clip-path="url(#251a067770)"><path fill="#000000" d="M 168.664062 139.136719 L 169.84375 139.136719 L 169.84375 134.46875 L 168.664062 134.46875 C 164.761719 134.46875 161.59375 137.601562 161.59375 141.46875 L 161.59375 149.636719 C 161.59375 150.371094 161.246094 151.0625 160.652344 151.503906 L 157.824219 153.601562 C 157.257812 154.023438 156.914062 154.671875 156.882812 155.371094 C 156.855469 156.070312 157.144531 156.75 157.671875 157.214844 L 160.804688 159.96875 C 161.308594 160.410156 161.59375 161.046875 161.59375 161.710938 L 161.59375 169.46875 C 161.59375 173.335938 164.761719 176.46875 168.664062 176.46875 L 169.84375 176.46875 L 169.84375 171.800781 L 168.664062 171.800781 C 167.363281 171.800781 166.308594 170.757812 166.308594 169.46875 L 166.308594 161.710938 C 166.308594 159.710938 165.445312 157.808594 163.933594 156.480469 L 162.960938 155.621094 L 163.480469 155.234375 C 165.261719 153.914062 166.308594 151.839844 166.308594 149.636719 L 166.308594 141.46875 C 166.308594 140.179688 167.363281 139.136719 168.664062 139.136719 Z M 168.664062 139.136719 " fill-opacity="1" fill-rule="evenodd"/></g><g clip-path="url(#5b849db35e)"><path fill="#545454" d="M 206.429688 139.136719 L 205.253906 139.136719 L 205.253906 134.46875 L 206.429688 134.46875 C 210.335938 134.46875 213.5 137.601562 213.5 141.46875 L 213.5 149.636719 C 213.5 150.371094 213.851562 151.0625 214.445312 151.503906 L 217.269531 153.601562 C 217.835938 154.023438 218.183594 154.671875 218.210938 155.371094 C 218.242188 156.070312 217.953125 156.75 217.421875 157.214844 L 214.292969 159.96875 C 213.789062 160.410156 213.5 161.046875 213.5 161.710938 L 213.5 169.46875 C 213.5 173.335938 210.335938 176.46875 206.429688 176.46875 L 205.253906 176.46875 L 205.253906 171.800781 L 206.429688 171.800781 C 207.734375 171.800781 208.789062 170.757812 208.789062 169.46875 L 208.789062 161.710938 C 208.789062 159.710938 209.652344 157.808594 211.160156 156.480469 L 212.136719 155.621094 L 211.617188 155.234375 C 209.835938 153.914062 208.789062 151.839844 208.789062 149.636719 L 208.789062 141.46875 C 208.789062 140.179688 207.734375 139.136719 206.429688 139.136719 Z M 206.429688 139.136719 " fill-opacity="1" fill-rule="evenodd"/></g><g fill="#ffffff" fill-opacity="1"><g transform="translate(79.453432, 226.156567)"><g><path d="M 8.539062 0.28125 C 12.457031 0.28125 15.785156 -2.03125 15.785156 -5.949219 C 15.785156 -13.71875 6.125 -11.792969 6.125 -15.433594 C 6.125 -16.625 7.035156 -17.183594 8.152344 -17.183594 C 9.34375 -17.183594 10.535156 -16.519531 11.582031 -15.363281 L 14.664062 -18.304688 C 13.125 -20.089844 10.777344 -21.277344 8.1875 -21.277344 C 4.863281 -21.277344 1.46875 -19.285156 1.46875 -15.082031 C 1.46875 -7.945312 11.164062 -9.660156 11.164062 -5.984375 C 11.164062 -4.828125 10.183594 -4.058594 8.574219 -4.058594 C 6.648438 -4.058594 5.144531 -5.144531 4.375 -6.789062 L 0.558594 -4.410156 C 1.925781 -1.785156 4.863281 0.28125 8.539062 0.28125 Z M 8.539062 0.28125 "/></g></g></g><g fill="#ffffff" fill-opacity="1"><g transform="translate(95.593128, 226.156567)"><g/></g></g><g fill="#ffffff" fill-opacity="1"><g transform="translate(103.543959, 226.156567)"><g><path d="M 15.011719 -21 L -0.175781 -21 L -0.175781 -16.902344 L 5.144531 -16.902344 L 5.144531 0 L 9.730469 0 L 9.730469 -16.902344 L 15.011719 -16.902344 Z M 15.011719 -21 "/></g></g></g><g fill="#ffffff" fill-opacity="1"><g transform="translate(117.933899, 226.156567)"><g><path d="M 2.238281 0 L 6.859375 0 L 6.859375 -21 L 2.238281 -21 Z M 2.238281 0 "/></g></g></g><g fill="#ffffff" fill-opacity="1"><g transform="translate(126.549643, 226.156567)"><g><path d="M 14.875 -16.9375 L 14.875 -21 L 2.238281 -21 L 2.238281 0 L 14.875 0 L 14.875 -4.058594 L 6.859375 -4.058594 L 6.859375 -8.46875 L 13.71875 -8.46875 L 13.71875 -12.527344 L 6.859375 -12.527344 L 6.859375 -16.9375 Z M 14.875 -16.9375 "/></g></g></g><g fill="#ffffff" fill-opacity="1"><g transform="translate(142.40938, 226.156567)"><g><path d="M 13.019531 -8.644531 C 15.503906 -9.378906 17.253906 -11.6875 17.253906 -14.558594 C 17.253906 -18.128906 14.59375 -21 10.988281 -21 L 2.066406 -21 L 2.066406 0 L 6.683594 0 L 6.683594 -8.121094 L 8.539062 -8.121094 L 13.71875 0 L 18.898438 0 Z M 10.289062 -11.933594 L 6.683594 -11.933594 L 6.683594 -16.902344 L 10.289062 -16.902344 C 11.757812 -16.902344 12.84375 -15.855469 12.84375 -14.417969 C 12.84375 -12.949219 11.757812 -11.933594 10.289062 -11.933594 Z M 10.289062 -11.933594 "/></g></g></g><g fill="#ffffff" fill-opacity="1"><g transform="translate(160.683774, 226.156567)"><g/></g></g><g fill="#ffffff" fill-opacity="1"><g transform="translate(168.634602, 226.156567)"><g><path d="M 8.539062 0.28125 C 12.457031 0.28125 15.785156 -2.03125 15.785156 -5.949219 C 15.785156 -13.71875 6.125 -11.792969 6.125 -15.433594 C 6.125 -16.625 7.035156 -17.183594 8.152344 -17.183594 C 9.34375 -17.183594 10.535156 -16.519531 11.582031 -15.363281 L 14.664062 -18.304688 C 13.125 -20.089844 10.777344 -21.277344 8.1875 -21.277344 C 4.863281 -21.277344 1.46875 -19.285156 1.46875 -15.082031 C 1.46875 -7.945312 11.164062 -9.660156 11.164062 -5.984375 C 11.164062 -4.828125 10.183594 -4.058594 8.574219 -4.058594 C 6.648438 -4.058594 5.144531 -5.144531 4.375 -6.789062 L 0.558594 -4.410156 C 1.925781 -1.785156 4.863281 0.28125 8.539062 0.28125 Z M 8.539062 0.28125 "/></g></g></g><g fill="#ffffff" fill-opacity="1"><g transform="translate(184.774295, 226.156567)"><g><path d="M 15.011719 -21 L -0.175781 -21 L -0.175781 -16.902344 L 5.144531 -16.902344 L 5.144531 0 L 9.730469 0 L 9.730469 -16.902344 L 15.011719 -16.902344 Z M 15.011719 -21 "/></g></g></g><g fill="#ffffff" fill-opacity="1"><g transform="translate(199.164232, 226.156567)"><g><path d="M 10.675781 0.28125 C 15.644531 0.28125 19.421875 -2.765625 19.421875 -6.71875 L 19.421875 -21 L 14.804688 -21 L 14.804688 -7.59375 C 14.804688 -5.460938 13.019531 -3.816406 10.675781 -3.816406 C 8.363281 -3.816406 6.578125 -5.460938 6.578125 -7.59375 L 6.578125 -21 L 1.960938 -21 L 1.960938 -6.71875 C 1.960938 -2.765625 5.773438 0.28125 10.675781 0.28125 Z M 10.675781 0.28125 "/></g></g></g><g fill="#ffffff" fill-opacity="1"><g transform="translate(220.098255, 226.156567)"><g><path d="M 2.066406 0 L 8.996094 0 C 14.769531 0 19.492188 -4.691406 19.492188 -10.5 C 19.492188 -16.308594 14.769531 -21 8.996094 -21 L 2.066406 -21 Z M 6.683594 -4.09375 L 6.683594 -16.902344 L 8.960938 -16.902344 C 12.285156 -16.902344 14.875 -14.140625 14.875 -10.5 C 14.875 -6.859375 12.285156 -4.09375 8.960938 -4.09375 Z M 6.683594 -4.09375 "/></g></g></g><g fill="#ffffff" fill-opacity="1"><g transform="translate(240.437369, 226.156567)"><g><path d="M 2.238281 0 L 6.859375 0 L 6.859375 -21 L 2.238281 -21 Z M 2.238281 0 "/></g></g></g><g fill="#ffffff" fill-opacity="1"><g transform="translate(249.05311, 226.156567)"><g><path d="M 12.074219 0.28125 C 18.058594 0.28125 22.851562 -4.550781 22.851562 -10.5 C 22.851562 -16.449219 18.058594 -21.277344 12.074219 -21.277344 C 6.125 -21.277344 1.292969 -16.449219 1.292969 -10.5 C 1.292969 -4.550781 6.125 0.28125 12.074219 0.28125 Z M 12.074219 -4.234375 C 8.539062 -4.234375 5.84375 -6.964844 5.84375 -10.5 C 5.84375 -14.035156 8.539062 -16.761719 12.074219 -16.761719 C 15.644531 -16.761719 18.339844 -14.035156 18.339844 -10.5 C 18.339844 -6.964844 15.644531 -4.234375 12.074219 -4.234375 Z M 12.074219 -4.234375 "/></g></g></g><g fill="#ffffff" fill-opacity="1"><g transform="translate(272.786747, 226.156567)"><g><path d="M 8.539062 0.28125 C 12.457031 0.28125 15.785156 -2.03125 15.785156 -5.949219 C 15.785156 -13.71875 6.125 -11.792969 6.125 -15.433594 C 6.125 -16.625 7.035156 -17.183594 8.152344 -17.183594 C 9.34375 -17.183594 10.535156 -16.519531 11.582031 -15.363281 L 14.664062 -18.304688 C 13.125 -20.089844 10.777344 -21.277344 8.1875 -21.277344 C 4.863281 -21.277344 1.46875 -19.285156 1.46875 -15.082031 C 1.46875 -7.945312 11.164062 -9.660156 11.164062 -5.984375 C 11.164062 -4.828125 10.183594 -4.058594 8.574219 -4.058594 C 6.648438 -4.058594 5.144531 -5.144531 4.375 -6.789062 L 0.558594 -4.410156 C 1.925781 -1.785156 4.863281 0.28125 8.539062 0.28125 Z M 8.539062 0.28125 "/></g></g></g><g fill="#323232" fill-opacity="1"><g transform="translate(174.463324, 173.899911)"><g><path d="M 13.417969 0.441406 C 19.578125 0.441406 24.800781 -3.191406 24.800781 -9.347656 C 24.800781 -21.558594 9.625 -18.53125 9.625 -24.253906 C 9.625 -26.121094 11.054688 -27 12.8125 -27 C 14.683594 -27 16.554688 -25.957031 18.203125 -24.140625 L 23.042969 -28.761719 C 20.621094 -31.566406 16.9375 -33.4375 12.867188 -33.4375 C 7.644531 -33.4375 2.308594 -30.300781 2.308594 -23.703125 C 2.308594 -12.484375 17.542969 -15.179688 17.542969 -9.402344 C 17.542969 -7.589844 16.003906 -6.378906 13.472656 -6.378906 C 10.449219 -6.378906 8.085938 -8.085938 6.875 -10.667969 L 0.878906 -6.929688 C 3.023438 -2.804688 7.644531 0.441406 13.417969 0.441406 Z M 13.417969 0.441406 "/></g></g></g><g fill="#ffffff" fill-opacity="1"><g transform="translate(141.384817, 257.406545)"><g><path d="M 3.359375 0.121094 C 4.890625 0.121094 6.136719 -0.796875 6.136719 -2.371094 C 6.136719 -5.429688 1.753906 -4.679688 1.753906 -6.824219 C 1.753906 -7.726562 2.488281 -8.160156 3.328125 -8.160156 C 4.019531 -8.160156 4.589844 -7.875 4.949219 -7.363281 L 5.699219 -7.996094 C 5.203125 -8.625 4.335938 -9.121094 3.300781 -9.121094 C 1.921875 -9.121094 0.796875 -8.21875 0.796875 -6.75 C 0.796875 -3.855469 5.175781 -4.574219 5.175781 -2.339844 C 5.175781 -1.378906 4.378906 -0.839844 3.375 -0.839844 C 2.355469 -0.839844 1.621094 -1.394531 1.304688 -2.21875 L 0.433594 -1.710938 C 0.898438 -0.601562 2.023438 0.121094 3.359375 0.121094 Z M 3.359375 0.121094 "/></g></g></g><g fill="#ffffff" fill-opacity="1"><g transform="translate(151.974887, 257.406545)"><g><path d="M 5.355469 0.121094 C 7.921875 0.121094 9.976562 -1.949219 9.976562 -4.5 C 9.976562 -7.050781 7.921875 -9.121094 5.355469 -9.121094 C 2.804688 -9.121094 0.734375 -7.050781 0.734375 -4.5 C 0.734375 -1.949219 2.804688 0.121094 5.355469 0.121094 Z M 5.355469 -0.839844 C 3.328125 -0.839844 1.695312 -2.460938 1.695312 -4.5 C 1.695312 -6.539062 3.328125 -8.160156 5.355469 -8.160156 C 7.394531 -8.160156 9.015625 -6.539062 9.015625 -4.5 C 9.015625 -2.460938 7.394531 -0.839844 5.355469 -0.839844 Z M 5.355469 -0.839844 "/></g></g></g><g fill="#ffffff" fill-opacity="1"><g transform="translate(166.719952, 257.406545)"><g><path d="M 6.089844 -8.070312 L 6.089844 -9 L 1.171875 -9 L 1.171875 0 L 2.128906 0 L 2.128906 -4.035156 L 5.578125 -4.035156 L 5.578125 -4.964844 L 2.128906 -4.964844 L 2.128906 -8.070312 Z M 6.089844 -8.070312 "/></g></g></g><g fill="#ffffff" fill-opacity="1"><g transform="translate(177.100023, 257.406545)"><g><path d="M 6.074219 -9 L 0.136719 -9 L 0.136719 -8.039062 L 2.625 -8.039062 L 2.625 0 L 3.585938 0 L 3.585938 -8.039062 L 6.074219 -8.039062 Z M 6.074219 -9 "/></g></g></g><g fill="#ffffff" fill-opacity="1"><g transform="translate(187.330096, 257.406545)"><g><path d="M 11.234375 -9 L 8.925781 -1.605469 L 6.734375 -9 L 5.386719 -9 L 3.226562 -1.621094 L 0.929688 -9 L -0.0898438 -9 L 2.730469 0 L 3.75 0 L 6.058594 -7.980469 L 8.414062 0 L 9.421875 0 L 12.226562 -9 Z M 11.234375 -9 "/></g></g></g><g fill="#ffffff" fill-opacity="1"><g transform="translate(203.485153, 257.406545)"><g><path d="M 6.523438 0 L 7.574219 0 L 4.320312 -9 L 3.253906 -9 L 0 0 L 1.050781 0 L 1.785156 -2.101562 L 5.789062 -2.101562 Z M 2.101562 -3.015625 L 3.796875 -7.859375 L 5.476562 -3.015625 Z M 2.101562 -3.015625 "/></g></g></g><g fill="#ffffff" fill-opacity="1"><g transform="translate(215.08022, 257.406545)"><g><path d="M 4.738281 -4.109375 C 5.925781 -4.273438 6.824219 -5.265625 6.824219 -6.480469 C 6.824219 -7.890625 5.699219 -9 4.320312 -9 L 1.09375 -9 L 1.09375 0 L 2.054688 0 L 2.054688 -4.066406 L 3.75 -4.066406 L 6.300781 0 L 7.394531 0 Z M 2.054688 -4.980469 L 2.054688 -8.039062 L 4.261719 -8.039062 C 5.160156 -8.039062 5.863281 -7.410156 5.863281 -6.511719 C 5.863281 -5.59375 5.175781 -4.980469 4.261719 -4.980469 Z M 2.054688 -4.980469 "/></g></g></g><g fill="#ffffff" fill-opacity="1"><g transform="translate(226.630289, 257.406545)"><g><path d="M 6.089844 -8.070312 L 6.089844 -9 L 1.171875 -9 L 1.171875 0 L 6.089844 0 L 6.089844 -0.929688 L 2.128906 -0.929688 L 2.128906 -4.035156 L 5.578125 -4.035156 L 5.578125 -4.964844 L 2.128906 -4.964844 L 2.128906 -8.070312 Z M 6.089844 -8.070312 "/></g></g></g><g fill="#ffffff" fill-opacity="1"><g transform="translate(123.595756, 273.906544)"><g><path d="M 1.09375 0 L 3.554688 0 C 6.03125 0 8.054688 -2.011719 8.054688 -4.5 C 8.054688 -6.988281 6.03125 -9 3.554688 -9 L 1.09375 -9 Z M 2.039062 -0.960938 L 2.039062 -8.039062 L 3.539062 -8.039062 C 5.535156 -8.039062 7.09375 -6.523438 7.09375 -4.5 C 7.09375 -2.476562 5.535156 -0.960938 3.539062 -0.960938 Z M 2.039062 -0.960938 "/></g></g></g><g fill="#ffffff" fill-opacity="1"><g transform="translate(136.40582, 273.906544)"><g><path d="M 6.089844 -8.070312 L 6.089844 -9 L 1.171875 -9 L 1.171875 0 L 6.089844 0 L 6.089844 -0.929688 L 2.128906 -0.929688 L 2.128906 -4.035156 L 5.578125 -4.035156 L 5.578125 -4.964844 L 2.128906 -4.964844 L 2.128906 -8.070312 Z M 6.089844 -8.070312 "/></g></g></g><g fill="#ffffff" fill-opacity="1"><g transform="translate(147.415888, 273.906544)"><g><path d="M 6.523438 -9 L 3.796875 -1.230469 L 1.066406 -9 L 0 -9 L 3.253906 0 L 4.320312 0 L 7.574219 -9 Z M 6.523438 -9 "/></g></g></g><g fill="#ffffff" fill-opacity="1"><g transform="translate(159.010955, 273.906544)"><g><path d="M 6.089844 -8.070312 L 6.089844 -9 L 1.171875 -9 L 1.171875 0 L 6.089844 0 L 6.089844 -0.929688 L 2.128906 -0.929688 L 2.128906 -4.035156 L 5.578125 -4.035156 L 5.578125 -4.964844 L 2.128906 -4.964844 L 2.128906 -8.070312 Z M 6.089844 -8.070312 "/></g></g></g><g fill="#ffffff" fill-opacity="1"><g transform="translate(170.021023, 273.906544)"><g><path d="M 2.054688 -0.960938 L 2.054688 -9 L 1.09375 -9 L 1.09375 0 L 5.398438 0 L 5.398438 -0.960938 Z M 2.054688 -0.960938 "/></g></g></g><g fill="#ffffff" fill-opacity="1"><g transform="translate(179.57609, 273.906544)"><g><path d="M 5.355469 0.121094 C 7.921875 0.121094 9.976562 -1.949219 9.976562 -4.5 C 9.976562 -7.050781 7.921875 -9.121094 5.355469 -9.121094 C 2.804688 -9.121094 0.734375 -7.050781 0.734375 -4.5 C 0.734375 -1.949219 2.804688 0.121094 5.355469 0.121094 Z M 5.355469 -0.839844 C 3.328125 -0.839844 1.695312 -2.460938 1.695312 -4.5 C 1.695312 -6.539062 3.328125 -8.160156 5.355469 -8.160156 C 7.394531 -8.160156 9.015625 -6.539062 9.015625 -4.5 C 9.015625 -2.460938 7.394531 -0.839844 5.355469 -0.839844 Z M 5.355469 -0.839844 "/></g></g></g><g fill="#ffffff" fill-opacity="1"><g transform="translate(194.321155, 273.906544)"><g><path d="M 4.320312 -9 L 1.09375 -9 L 1.09375 0 L 2.054688 0 L 2.054688 -4.003906 L 4.320312 -4.003906 C 5.714844 -4.003906 6.824219 -5.101562 6.824219 -6.496094 C 6.824219 -7.875 5.714844 -9 4.320312 -9 Z M 4.230469 -4.921875 L 2.054688 -4.921875 L 2.054688 -8.070312 L 4.230469 -8.070312 C 5.128906 -8.070312 5.863281 -7.441406 5.863281 -6.480469 C 5.863281 -5.488281 5.128906 -4.921875 4.230469 -4.921875 Z M 4.230469 -4.921875 "/></g></g></g><g fill="#ffffff" fill-opacity="1"><g transform="translate(205.421219, 273.906544)"><g><path d="M 9.03125 -9 L 5.566406 -1.15625 L 2.113281 -9 L 1.09375 -9 L 1.09375 0 L 2.054688 0 L 2.054688 -7.109375 L 5.160156 0 L 5.953125 0 L 9.089844 -7.078125 L 9.089844 0 L 10.035156 0 L 10.035156 -9 Z M 9.03125 -9 "/></g></g></g><g fill="#ffffff" fill-opacity="1"><g transform="translate(220.571279, 273.906544)"><g><path d="M 6.089844 -8.070312 L 6.089844 -9 L 1.171875 -9 L 1.171875 0 L 6.089844 0 L 6.089844 -0.929688 L 2.128906 -0.929688 L 2.128906 -4.035156 L 5.578125 -4.035156 L 5.578125 -4.964844 L 2.128906 -4.964844 L 2.128906 -8.070312 Z M 6.089844 -8.070312 "/></g></g></g><g fill="#ffffff" fill-opacity="1"><g transform="translate(231.581353, 273.906544)"><g><path d="M 7.558594 -9 L 7.558594 -1.605469 L 1.996094 -9 L 1.09375 -9 L 1.09375 0 L 2.054688 0 L 2.054688 -7.394531 L 7.605469 0 L 8.503906 0 L 8.503906 -9 Z M 7.558594 -9 "/></g></g></g><g fill="#ffffff" fill-opacity="1"><g transform="translate(245.201423, 273.906544)"><g><path d="M 6.074219 -9 L 0.136719 -9 L 0.136719 -8.039062 L 2.625 -8.039062 L 2.625 0 L 3.585938 0 L 3.585938 -8.039062 L 6.074219 -8.039062 Z M 6.074219 -9 "/></g></g></g></svg>